<svg width="512" height="512" viewBox="0 0 512 512" fill="none" xmlns="http://www.w3.org/2000/svg">
<g clip-path="url(#clip0_41_450)">
<g clip-path="url(#clip1_41_450)">
<path d="M255.5 318C286.223 318 311 293.223 311 262.5C311 231.777 286.223 207 255.5 207C224.777 207 200 231.777 200 262.5C200 293.223 224.777 318 255.5 318Z" fill="#0098EA"/>
<path d="M274.528 237.921H236.471C229.534 237.921 225.173 245.454 228.543 251.598L251.932 292.232C253.518 294.809 257.284 294.809 258.87 292.232L282.259 251.598C285.827 245.454 281.466 237.921 274.528 237.921ZM252.13 279.943L246.977 270.032L234.687 248.03C233.895 246.643 234.886 244.859 236.67 244.859H252.13V279.943ZM276.312 248.03L264.023 270.032L258.87 279.943V244.859H274.33C276.114 244.859 277.105 246.643 276.312 248.03Z" fill="white"/>
</g>
<path d="M430.607 378.667C439.443 378.667 446.607 371.503 446.607 362.667C446.607 353.83 439.443 346.667 430.607 346.667V378.667ZM287.576 453.613C284.783 461.997 289.316 471.055 297.7 473.847C306.084 476.638 315.145 472.105 317.937 463.721L287.576 453.613ZM85.2841 346.667C76.4476 346.667 69.2841 353.83 69.2841 362.667C69.2841 371.503 76.4476 378.667 85.2841 378.667V346.667ZM197.956 463.721C200.747 472.105 209.807 476.638 218.191 473.847C226.575 471.055 231.108 461.997 228.318 453.613L197.956 463.721ZM118.528 116.468C116.243 107.931 107.471 102.864 98.9353 105.148C90.3992 107.433 85.3313 116.205 87.6159 124.741L118.528 116.468ZM34.7177 255.742C27.3462 260.614 25.3204 270.541 30.1931 277.911C35.0661 285.284 44.9921 287.309 52.3636 282.436L34.7177 255.742ZM425.259 124.743C427.543 116.207 422.475 107.435 413.939 105.15C405.404 102.866 396.632 107.933 394.347 116.47L425.259 124.743ZM460.51 282.438C467.883 287.311 477.809 285.286 482.682 277.914C487.554 270.543 485.527 260.617 478.157 255.744L460.51 282.438ZM343.26 81.8396C350.481 76.7467 352.205 66.764 347.113 59.5428C342.02 52.3215 332.036 50.5963 324.815 55.6894L343.26 81.8396ZM183.795 51.1273C176.686 45.8793 166.668 47.3884 161.42 54.4979C156.172 61.6073 157.681 71.625 164.791 76.8728L183.795 51.1273ZM452.841 256C452.841 365.003 364.585 453.333 255.755 453.333V485.333C382.293 485.333 484.841 382.639 484.841 256H452.841ZM255.755 453.333C146.923 453.333 58.6667 365.003 58.6667 256H26.6667C26.6667 382.639 129.215 485.333 255.755 485.333V453.333ZM58.6667 256C58.6667 146.998 146.923 58.6667 255.755 58.6667V26.6667C129.215 26.6667 26.6667 129.36 26.6667 256H58.6667ZM255.755 58.6667C364.585 58.6667 452.841 146.998 452.841 256H484.841C484.841 129.36 382.293 26.6667 255.755 26.6667V58.6667ZM258.97 214.603L298.148 244.567L317.589 219.149L278.409 189.184L258.97 214.603ZM300.002 250.389L284.614 300.245L315.191 309.683L330.579 259.827L300.002 250.389ZM279.544 304H231.964V336H279.544V304ZM226.893 300.245L211.504 250.389L180.928 259.827L196.316 309.683L226.893 300.245ZM213.359 244.567L252.538 214.603L233.099 189.184L193.919 219.149L213.359 244.567ZM430.607 346.667H396.151V378.667H430.607V346.667ZM300.111 415.962L287.576 453.613L317.937 463.721L330.473 426.069L300.111 415.962ZM396.151 346.667C381.696 346.667 369.508 346.643 359.584 347.776C349.25 348.958 339.763 351.533 331.153 357.745L349.88 383.695C352.429 381.854 355.938 380.401 363.217 379.569C370.908 378.69 380.958 378.667 396.151 378.667V346.667ZM330.473 426.069C335.277 411.639 338.479 402.099 341.745 395.07C344.838 388.414 347.326 385.536 349.88 383.695L331.153 357.745C322.545 363.957 317.109 372.147 312.725 381.585C308.512 390.65 304.683 402.229 300.111 415.962L330.473 426.069ZM85.2841 378.667H119.74V346.667H85.2841V378.667ZM185.42 426.069L197.956 463.721L228.318 453.613L215.78 415.962L185.42 426.069ZM119.74 378.667C134.933 378.667 144.984 378.69 152.674 379.569C159.954 380.401 163.462 381.854 166.013 383.695L184.738 357.745C176.128 351.533 166.643 348.958 156.308 347.776C146.383 346.643 134.195 346.667 119.74 346.667V378.667ZM215.78 415.962C211.209 402.229 207.379 390.65 203.167 381.585C198.782 372.149 193.346 363.957 184.738 357.745L166.013 383.695C168.565 385.536 171.054 388.414 174.147 395.07C177.413 402.099 180.615 411.639 185.42 426.069L215.78 415.962ZM87.6159 124.741L96.5336 158.061L127.446 149.787L118.528 116.468L87.6159 124.741ZM67.7998 233.873L34.7177 255.742L52.3636 282.436L85.4456 260.57L67.7998 233.873ZM96.5336 158.061C100.466 172.752 103.045 182.481 104.187 190.149C105.27 197.411 104.777 201.188 103.658 204.139L133.58 215.482C137.343 205.555 137.372 195.726 135.838 185.432C134.364 175.544 131.187 163.768 127.446 149.787L96.5336 158.061ZM85.4456 260.57C97.5098 252.595 107.692 245.892 115.349 239.471C123.323 232.787 129.817 225.41 133.58 215.482L103.658 204.139C102.54 207.089 100.407 210.24 94.7886 214.953C88.8536 219.927 80.4788 225.493 67.7998 233.873L85.4456 260.57ZM394.347 116.47L385.429 149.789L416.341 158.063L425.259 124.743L394.347 116.47ZM427.428 260.572L460.51 282.438L478.157 255.744L445.075 233.875L427.428 260.572ZM385.429 149.789C381.687 163.77 378.511 175.546 377.037 185.434C375.503 195.728 375.531 205.557 379.294 215.484L409.216 204.141C408.098 201.19 407.605 197.413 408.687 190.151C409.83 182.483 412.408 172.755 416.341 158.063L385.429 149.789ZM445.075 233.875C432.395 225.495 424.021 219.93 418.086 214.953C412.467 210.242 410.334 207.091 409.216 204.141L379.294 215.484C383.057 225.412 389.551 232.789 397.525 239.473C405.182 245.894 415.364 252.597 427.428 260.572L445.075 233.875ZM324.815 55.6894L296.649 75.5554L315.091 101.706L343.26 81.8396L324.815 55.6894ZM215.701 74.6797L183.795 51.1273L164.791 76.8728L196.698 100.425L215.701 74.6797ZM296.649 75.5554C284.226 84.3158 275.996 90.0913 269.203 93.8072C262.771 97.3257 259.068 98.16 255.928 98.1259L255.58 130.124C266.197 130.239 275.433 126.874 284.559 121.882C293.325 117.087 303.273 110.041 315.091 101.706L296.649 75.5554ZM196.698 100.425C208.333 109.014 218.127 116.274 226.786 121.257C235.804 126.445 244.964 130.009 255.58 130.124L255.928 98.1259C252.787 98.092 249.103 97.1776 242.748 93.5209C236.036 89.6589 227.932 83.7067 215.701 74.6797L196.698 100.425ZM298.148 244.567C299.049 245.254 299.68 246.185 300.004 247.232L330.579 237.792C328.344 230.549 323.9 223.977 317.589 219.149L298.148 244.567ZM300.004 247.232C300.316 248.243 300.329 249.335 300.002 250.389L330.579 259.827C332.849 252.478 332.745 244.809 330.579 237.792L300.004 247.232ZM388.134 195.03L309.169 227.729L321.412 257.295L400.378 224.595L388.134 195.03ZM278.409 189.184C271.725 184.072 263.731 181.513 255.755 181.513V213.513C256.894 213.513 258.016 213.873 258.97 214.603L278.409 189.184ZM255.755 181.513C247.778 181.513 239.782 184.072 233.099 189.184L252.538 214.603C253.491 213.873 254.613 213.513 255.755 213.513V181.513ZM271.755 197.513V114.125H239.755V197.513H271.755ZM284.614 300.245C284.286 301.314 283.652 302.208 282.82 302.863L302.618 328.004C308.427 323.43 312.898 317.111 315.191 309.683L284.614 300.245ZM282.82 302.863C281.899 303.59 280.762 304 279.544 304V336C288.134 336 296.205 333.054 302.618 328.004L282.82 302.863ZM352.621 360.256L304.824 304.969L280.614 325.899L328.414 381.184L352.621 360.256ZM231.964 304C230.746 304 229.609 303.59 228.687 302.863L208.89 328.004C215.302 333.054 223.373 336 231.964 336V304ZM228.687 302.863C227.855 302.208 227.221 301.314 226.893 300.245L196.316 309.683C198.609 317.111 203.081 323.43 208.89 328.004L228.687 302.863ZM187.959 380.602L231.373 325.316L206.205 305.553L162.791 360.838L187.959 380.602ZM211.504 250.389C211.179 249.335 211.192 248.243 211.504 247.232L180.928 237.792C178.763 244.809 178.659 252.478 180.928 259.827L211.504 250.389ZM211.504 247.232C211.827 246.185 212.46 245.254 213.359 244.567L193.919 219.149C187.608 223.977 183.164 230.549 180.928 237.792L211.504 247.232ZM202.43 227.767L124.833 195.066L112.405 224.555L190.002 257.257L202.43 227.767Z" fill="black"/>
</g>
<defs>
<clipPath id="clip0_41_450">
<rect width="512" height="512" fill="white"/>
</clipPath>
<clipPath id="clip1_41_450">
<rect width="111" height="111" fill="white" transform="translate(200 207)"/>
</clipPath>
</defs>
</svg>
